# xmcd CD database file generated by LOLA_Freedb v0.9beta0
# 
# Track frame offsets:
#      150
#      41519
#      64452
#      86147
#      115347
#      142111
#      160981
#      180726
#      250197
# 
# Disc length: 3657 seconds
# 
# Revision: 4 
# Processed by: cddbd v1.5.1PL2 Copyright (c) Steve Scherf et al.
# Submitted via: LOLA_Freedb v0.9beta0
# 
DISCID=830e4709
DTITLE=Wolfe - Why Thank You Very Much
DYEAR=2003
DGENRE=Blues-Rock
TTITLE0=Wolfe - Cissy Strut
TTITLE1=Heaven
TTITLE2=Woke Up This Morning
TTITLE3=Got To Get Better In A Little While
TTITLE4=Need Your Love So Bad
TTITLE5=Forty Four
TTITLE6=The Great Liberator
TTITLE7=Shame
TTITLE8=Who's That Coming
EXTD=YEAR: 2003
EXTT0=
EXTT1=
EXTT2=
EXTT3=
EXTT4=
EXTT5=
EXTT6=
EXTT7=
EXTT8=
PLAYORDER=
